# xmcd
#
# Track frame offsets: 
#        150
#        15611
#        48039
#        79368
#
# Disc length: 1355 seconds
#
# Revision: 0
# Processed by: cddbd v1.5.2PL0 Copyright (c) Steve Scherf et al.
# Submitted via: ExactAudioCopy v0.99pb5
#
DISCID=24054904
DTITLE=Zee28 - Zee28_live in der Mausefalle
DYEAR=2011
DGENRE=Hard Rock
TTITLE0=All or Nothing
TTITLE1=Seven Nation Army
TTITLE2=Hard Working Man
TTITLE3=Keep on Pushin`
EXTD=
EXTT0=
EXTT1=
EXTT2=
EXTT3=
PLAYORDER=
